<svg width="660" height="663" viewBox="0 0 660 663" fill="none" xmlns="http://www.w3.org/2000/svg">
<path d="M71.9962 53.949C73.1502 46.6613 79.433 41.2952 86.8115 41.2952H571.256C578.605 41.2952 584.872 46.6191 586.059 53.8713L657.147 488.008C658.642 497.138 651.596 505.432 642.344 505.432H18.0623C8.84234 505.432 1.80482 497.192 3.24691 488.086L71.9962 53.949Z" fill="#361520"/>
<rect x="213.424" y="41.9065" width="228.094" height="346.727" fill="url(#paint0_linear_49_1315)"/>
<rect x="218.317" y="143.417" width="218.309" height="59.3165" fill="#37141D"/>
<g filter="url(#filter0_d_49_1315)">
<path d="M263.038 158.825H276.183V161.132H265.579V169.401H275.152V171.708H265.579V178.273H263.038V158.825Z" fill="white" fill-opacity="0.88" shape-rendering="crispEdges"/>
<path d="M291.063 175.815C290.111 174.945 289.355 173.91 288.797 172.711C288.247 171.511 287.973 170.302 287.973 169.085C287.973 167.867 288.096 166.814 288.344 165.926C288.6 165.028 288.962 164.204 289.429 163.453C289.896 162.693 290.454 162.011 291.104 161.407C291.754 160.802 292.478 160.29 293.274 159.868C294.941 158.989 296.759 158.55 298.727 158.55C300.614 158.55 302.372 158.971 304.002 159.813C305.586 160.638 306.849 161.782 307.792 163.247C308.754 164.776 309.235 166.475 309.235 168.343C309.235 171.301 308.191 173.75 306.103 175.691C304.794 176.909 303.214 177.747 301.364 178.205C300.44 178.434 299.368 178.548 298.15 178.548C296.933 178.548 295.687 178.31 294.414 177.834C293.142 177.349 292.025 176.676 291.063 175.815ZM292.945 162.973C292.24 163.641 291.681 164.433 291.269 165.349C290.866 166.264 290.665 167.272 290.665 168.37C290.665 169.469 290.875 170.499 291.297 171.461C291.718 172.422 292.295 173.26 293.027 173.974C294.593 175.504 296.493 176.268 298.727 176.268C300.897 176.268 302.738 175.554 304.249 174.125C305.778 172.679 306.543 170.889 306.543 168.755C306.543 167.308 306.176 165.967 305.444 164.731C304.757 163.559 303.791 162.615 302.546 161.901C301.319 161.187 300.064 160.83 298.782 160.83C297.5 160.83 296.383 161.022 295.431 161.407C294.488 161.782 293.659 162.304 292.945 162.973Z" fill="white" fill-opacity="0.88" shape-rendering="crispEdges"/>
<path d="M327.233 169.977L320.063 158.825H322.852L328.524 167.711L334.156 158.825H336.779L329.774 169.936V178.273H327.233V169.977Z" fill="white" fill-opacity="0.88" shape-rendering="crispEdges"/>
<path d="M348.267 158.825H362.785V161.132H350.808V166.379H361.48V168.686H350.808V175.966H363.06V178.273H348.267V158.825Z" fill="white" fill-opacity="0.88" shape-rendering="crispEdges"/>
<path d="M392.541 164.813C392.541 167.697 391.213 169.689 388.558 170.788L392.252 178.273H389.299L385.962 171.502C385.055 171.639 384.107 171.708 383.119 171.708H378.064V178.273H375.523V158.825H383.503C386.378 158.825 388.526 159.218 389.945 160.006C391.676 160.958 392.541 162.56 392.541 164.813ZM383.462 169.401C385.513 169.401 387.033 169.117 388.022 168.549C389.24 167.844 389.849 166.654 389.849 164.978C389.849 162.799 388.439 161.562 385.618 161.269C384.803 161.178 383.966 161.132 383.105 161.132H378.064V169.401H383.462Z" fill="white" fill-opacity="0.88" shape-rendering="crispEdges"/>
</g>
<path d="M205.475 397.194H451.914V506.439C451.914 511.962 447.437 516.439 441.914 516.439H215.475C209.952 516.439 205.475 511.962 205.475 506.439V397.194Z" fill="#361520"/>
<rect x="254.784" y="424.31" width="147.82" height="64.4023" stroke="#D0AA78" stroke-width="2"/>
<rect x="304.414" y="457.263" width="21" height="21" transform="rotate(-45 304.414 457.263)" stroke="#D0AA78" stroke-width="2"/>
<rect x="323.414" y="457.263" width="21" height="21" transform="rotate(-45 323.414 457.263)" stroke="#D0AA78" stroke-width="2"/>
<rect x="313.414" y="457.263" width="21" height="21" transform="rotate(-45 313.414 457.263)" stroke="#D0AA78" stroke-width="2"/>
<path d="M147.047 396.248H173.399V502.619L147.047 484.934V396.248Z" fill="#361520" stroke="#D0AA78" stroke-width="3"/>
<path d="M510.342 396.248H483.989V502.619L510.342 484.934V396.248Z" fill="#361520" stroke="#D0AA78" stroke-width="3"/>
<mask id="path-12-inside-1_49_1315" fill="white">
<path d="M174.288 397.194H205.475V505.432H174.288V397.194Z"/>
</mask>
<path d="M174.288 397.194H205.475V505.432H174.288V397.194Z" fill="#361520"/>
<path d="M198.475 397.194V505.432H212.475V397.194H198.475ZM181.288 505.432V397.194H167.288V505.432H181.288Z" fill="#D0AA78" mask="url(#path-12-inside-1_49_1315)"/>
<mask id="path-14-inside-2_49_1315" fill="white">
<path d="M451.914 397.194H483.101V505.432H451.914V397.194Z"/>
</mask>
<path d="M451.914 397.194H483.101V505.432H451.914V397.194Z" fill="#361520"/>
<path d="M476.101 397.194V505.432H490.101V397.194H476.101ZM458.914 505.432V397.194H444.914V505.432H458.914Z" fill="#D0AA78" mask="url(#path-14-inside-2_49_1315)"/>
<rect x="160.223" y="24.2039" width="53.2014" height="364.429" fill="url(#paint1_linear_49_1315)"/>
<path fill-rule="evenodd" clip-rule="evenodd" d="M212.719 30.3345C212.904 29.0825 213 27.8022 213 26.5C213 11.8645 200.912 0 186 0C171.088 0 159 11.8645 159 26.5C159 28.2769 159.178 30.0129 159.518 31.6919V388.633H212.719V30.3345Z" fill="#F6BC8B"/>
<rect x="201.489" y="35.5613" width="3.66906" height="156.827" fill="#F8F9BD"/>
<rect x="180.086" y="35.5613" width="3.66906" height="156.827" fill="#F8F9BD"/>
<rect x="191.094" y="35.5613" width="3.66906" height="156.827" fill="#F8F9BD"/>
<rect x="177.64" y="245.092" width="18.9568" height="116.335" fill="#36151F"/>
<path d="M187.424 211.67L194.309 244.931H180.54L187.424 211.67Z" fill="#F4BD8F"/>
<rect x="180.698" y="361.426" width="12.8417" height="26.352" rx="3" fill="#F6BA8D"/>
<line x1="175.194" y1="361.712" x2="199.655" y2="361.712" stroke="#381622" stroke-width="2"/>
<line x1="175.194" y1="364.283" x2="199.655" y2="364.283" stroke="#381622" stroke-width="2"/>
<line x1="175.194" y1="366.854" x2="199.655" y2="366.854" stroke="#381622" stroke-width="2"/>
<line x1="175.194" y1="369.425" x2="199.655" y2="369.425" stroke="#381622" stroke-width="2"/>
<line x1="175.194" y1="236.379" x2="199.655" y2="236.379" stroke="#381622" stroke-width="2"/>
<line x1="175.194" y1="238.95" x2="199.655" y2="238.95" stroke="#381622" stroke-width="2"/>
<line x1="175.194" y1="241.521" x2="199.655" y2="241.521" stroke="#381622" stroke-width="2"/>
<line x1="175.194" y1="244.092" x2="199.655" y2="244.092" stroke="#381622" stroke-width="2"/>
<rect x="168.784" y="180.388" width="36.0791" height="208.245" fill="#FDFCBF"/>
<rect x="168.784" y="23.5613" width="3.66906" height="156.827" fill="#F8F9BD"/>
<rect x="201.194" y="23.5613" width="3.66906" height="156.827" fill="#F8F9BD"/>
<rect x="179.791" y="23.5613" width="3.66906" height="156.827" fill="#F8F9BD"/>
<rect x="190.799" y="23.5613" width="3.66906" height="156.827" fill="#F8F9BD"/>
<rect x="177.345" y="233.092" width="18.9568" height="116.335" fill="#36151F"/>
<path d="M187.13 199.67L194.014 232.931H180.245L187.13 199.67Z" fill="#F4BD8F"/>
<rect x="180.403" y="349.426" width="12.8417" height="26.352" rx="3" fill="#F6BA8D"/>
<line x1="174.899" y1="349.712" x2="199.36" y2="349.712" stroke="#381622" stroke-width="2"/>
<line x1="174.899" y1="352.283" x2="199.36" y2="352.283" stroke="#381622" stroke-width="2"/>
<line x1="174.899" y1="354.854" x2="199.36" y2="354.854" stroke="#381622" stroke-width="2"/>
<line x1="174.899" y1="357.425" x2="199.36" y2="357.425" stroke="#381622" stroke-width="2"/>
<line x1="174.899" y1="224.379" x2="199.36" y2="224.379" stroke="#381622" stroke-width="2"/>
<line x1="174.899" y1="226.95" x2="199.36" y2="226.95" stroke="#381622" stroke-width="2"/>
<line x1="174.899" y1="229.521" x2="199.36" y2="229.521" stroke="#381622" stroke-width="2"/>
<line x1="174.899" y1="232.092" x2="199.36" y2="232.092" stroke="#381622" stroke-width="2"/>
<path fill-rule="evenodd" clip-rule="evenodd" d="M494.719 30.3345C494.904 29.0825 495 27.8022 495 26.5C495 11.8645 482.912 0 468 0C453.088 0 441 11.8645 441 26.5C441 28.2769 441.178 30.0129 441.518 31.6919V388.633H494.719V30.3345Z" fill="#F6BC8B"/>
<rect x="450.079" y="180.388" width="36.0791" height="208.245" fill="#FDFCBF"/>
<rect x="450.079" y="23.5613" width="3.66906" height="156.827" fill="#F8F9BD"/>
<rect x="482.489" y="23.5613" width="3.66906" height="156.827" fill="#F8F9BD"/>
<rect x="461.086" y="23.5613" width="3.66906" height="156.827" fill="#F8F9BD"/>
<rect x="472.094" y="23.5613" width="3.66906" height="156.827" fill="#F8F9BD"/>
<rect x="458.64" y="233.092" width="18.9568" height="116.335" fill="#36151F"/>
<path d="M468.424 199.67L475.309 232.931H461.54L468.424 199.67Z" fill="#F4BD8F"/>
<rect x="461.698" y="349.426" width="12.8417" height="26.352" rx="3" fill="#F6BA8D"/>
<line x1="456.194" y1="349.712" x2="480.655" y2="349.712" stroke="#381622" stroke-width="2"/>
<line x1="456.194" y1="352.283" x2="480.655" y2="352.283" stroke="#381622" stroke-width="2"/>
<line x1="456.194" y1="354.854" x2="480.655" y2="354.854" stroke="#381622" stroke-width="2"/>
<line x1="456.194" y1="357.425" x2="480.655" y2="357.425" stroke="#381622" stroke-width="2"/>
<line x1="456.194" y1="224.379" x2="480.655" y2="224.379" stroke="#381622" stroke-width="2"/>
<line x1="456.194" y1="226.95" x2="480.655" y2="226.95" stroke="#381622" stroke-width="2"/>
<line x1="456.194" y1="229.521" x2="480.655" y2="229.521" stroke="#381622" stroke-width="2"/>
<line x1="456.194" y1="232.092" x2="480.655" y2="232.092" stroke="#381622" stroke-width="2"/>
<circle cx="327.777" cy="59.0288" r="31.187" fill="#F6B789"/>
<circle cx="327.777" cy="59.029" r="22.0144" fill="#FAF5BC"/>
<circle cx="112.525" cy="108.561" r="22.0144" fill="#F6B789"/>
<circle cx="112.525" cy="108.561" r="15.5396" fill="#FAF5BC"/>
<circle cx="538.137" cy="108.561" r="22.0144" fill="#F6B789"/>
<circle cx="538.137" cy="108.561" r="15.5396" fill="#FAF5BC"/>
<rect x="260.511" y="218.022" width="136.35" height="170.612" rx="3" fill="url(#paint2_linear_49_1315)"/>
<line x1="396.861" y1="250.709" x2="260.511" y2="250.709" stroke="#5F4F53" stroke-opacity="0.66" stroke-width="3"/>
<line y1="-1.5" x2="170.608" y2="-1.5" transform="matrix(-0.00372284 -0.999993 0.999994 -0.00352608 313.123 388.633)" stroke="#5F4F53" stroke-opacity="0.66" stroke-width="3"/>
<line x1="344.633" y1="388.633" x2="344.633" y2="218.022" stroke="#5F4F53" stroke-opacity="0.66" stroke-width="3"/>
<line x1="396.861" y1="291.069" x2="260.511" y2="291.069" stroke="#5F4F53" stroke-opacity="0.66" stroke-width="3"/>
<line x1="396.861" y1="328.371" x2="260.511" y2="328.371" stroke="#5F4F53" stroke-opacity="0.66" stroke-width="3"/>
<path d="M297.813 258.382H358.964V259.554C358.964 263.973 355.382 267.554 350.964 267.554H305.813C301.395 267.554 297.813 263.973 297.813 259.554V258.382Z" fill="#371521"/>
<path d="M313.101 268.166H344.288V268.166C344.288 270.868 342.098 273.058 339.396 273.058H317.993C315.291 273.058 313.101 270.868 313.101 268.166V268.166Z" fill="#371521"/>
<line x1="320.773" y1="258.382" x2="320.773" y2="218.022" stroke="#351520" stroke-width="3"/>
<line x1="335.45" y1="258.382" x2="335.45" y2="218.022" stroke="#351520" stroke-width="3"/>
<line x1="332.392" y1="258.382" x2="332.392" y2="218.022" stroke="#351520" stroke-width="3"/>
<line x1="323.831" y1="258.382" x2="323.831" y2="218.022" stroke="#351520" stroke-width="3"/>
<path d="M294.36 362.478C294.241 362.483 294.116 362.524 293.986 362.611L287.5 366.953L296.442 371.289C297.149 371.632 298.028 370.896 297.864 370.431L295.408 363.47C295.275 363.092 294.877 362.455 294.36 362.478ZM287.5 366.953L281.031 362.611C280.379 362.174 279.774 363.005 279.608 363.469L277.134 370.418C276.969 370.883 277.821 371.631 278.556 371.276L287.5 366.953ZM298.008 368.396L298.633 370.166C298.77 370.555 298.671 370.925 298.527 371.19C298.383 371.454 298.184 371.656 297.947 371.82C297.49 372.137 296.809 372.323 296.149 372.036L287.499 388.242L278.878 372.012C278.206 372.318 277.498 372.137 277.033 371.808C276.796 371.641 276.599 371.434 276.459 371.168C276.319 370.901 276.229 370.535 276.365 370.151L276.976 368.436L270.571 370.46C269.043 370.942 267.58 371.672 267.891 373.105L272.553 394.52C272.865 395.953 273.749 397.166 275.233 397.166L299.64 397.167C301.124 397.167 302.011 395.955 302.32 394.522L306.946 373.068C307.256 371.635 305.678 370.88 304.267 370.423L298.008 368.396ZM287.507 371.307C286.674 371.307 285.988 371.984 285.988 372.806C285.988 373.628 286.674 374.306 287.507 374.306C288.34 374.306 289.026 373.628 289.026 372.806C289.026 371.984 288.339 371.307 287.507 371.307ZM287.507 372.312C287.789 372.312 288.008 372.527 288.008 372.806C288.008 373.085 287.789 373.301 287.507 373.301C287.224 373.301 287.006 373.085 287.006 372.806C287.006 372.527 287.224 372.312 287.507 372.312ZM287.507 377.14C286.674 377.14 285.988 377.817 285.988 378.639C285.988 379.462 286.674 380.139 287.507 380.139C288.34 380.139 289.026 379.461 289.026 378.639C289.026 377.817 288.339 377.14 287.507 377.14ZM287.507 378.145C287.789 378.145 288.008 378.36 288.008 378.639C288.008 378.918 287.789 379.134 287.507 379.134C287.224 379.134 287.006 378.918 287.006 378.639C287.006 378.36 287.224 378.145 287.507 378.145ZM296.485 379.174H302.317V380.574H296.485V379.174Z" fill="#381323"/>
<ellipse cx="287.862" cy="365.591" rx="3.11315" ry="1.33421" fill="#322323"/>
<path fill-rule="evenodd" clip-rule="evenodd" d="M295.418 352.143C296.542 350.696 297.201 348.929 297.201 347.023C297.201 342.11 292.821 338.128 287.417 338.128C282.014 338.128 277.633 342.11 277.633 347.023C277.633 348.929 278.293 350.695 279.416 352.143C279.413 352.031 279.412 351.917 279.412 351.804C279.412 345.909 282.996 341.13 287.417 341.13C291.838 341.13 295.422 345.909 295.422 351.804C295.422 351.917 295.421 352.031 295.418 352.143Z" fill="#381323"/>
<ellipse cx="287.417" cy="343.354" rx="12.4526" ry="7.5605" fill="#381323"/>
<ellipse cx="287.862" cy="339.518" rx="8.44997" ry="6.67103" fill="#381323"/>
<g clip-path="url(#clip0_49_1315)">
<path d="M376.707 367.584C376.707 367.584 375.343 367.508 374.328 367.387C373.993 367.346 373.896 366.914 374.177 366.727C376.317 365.298 377.745 362.839 378.311 360.262C378.485 359.469 378.624 358.635 378.724 357.784C378.737 357.673 378.673 357.567 378.571 357.523C373.818 355.489 371.237 351.412 370.468 350.025C370.368 349.844 370.188 349.743 369.999 349.73C368.632 351.694 366.662 353.167 364.451 353.894C363.4 355.327 362.778 357.017 362.953 358.934C363.241 362.088 365.111 364.937 367.614 366.813C367.878 367.011 367.757 367.429 367.429 367.461C366.557 367.546 365.41 367.584 365.071 367.584C360.183 367.584 354.348 362.822 355.845 358.169L357.956 349.16C359.568 344.149 363.831 340.323 369.048 339.618C375.629 338.728 381.741 342.693 383.72 348.843L385.932 358.17C387.429 362.823 381.596 367.585 376.708 367.585L376.707 367.584Z" fill="#391422"/>
<path d="M348.749 384.83C349.749 380.374 350.843 376.871 351.977 375.311C351.977 375.311 355.061 370.763 361.426 369.852C362.13 369.751 362.839 370.039 363.266 370.608L368.891 378.099C369.89 379.43 371.887 379.43 372.887 378.099L378.511 370.608C378.938 370.039 379.647 369.751 380.351 369.852C386.717 370.763 389.8 375.311 389.8 375.311C390.934 376.87 392.029 380.374 393.028 384.83C393.524 387.019 391.855 389.098 389.611 389.098H352.166C349.923 389.098 348.254 387.019 348.75 384.83H348.749Z" fill="#391422"/>
<path d="M367.602 370.938C367.628 370.936 367.651 370.923 367.678 370.923C368.049 370.923 368.343 371.2 368.398 371.556C368.434 371.55 368.465 371.534 368.503 371.534C368.827 371.534 369.095 371.746 369.196 372.036C369.273 372.009 369.352 371.987 369.438 371.987C369.72 371.987 369.957 372.15 370.082 372.381C370.208 372.283 370.359 372.215 370.531 372.215C370.729 372.215 370.907 372.295 371.04 372.422C371.173 372.295 371.351 372.215 371.55 372.215C371.666 372.215 371.773 372.247 371.871 372.295C372.006 372.113 372.213 371.987 372.457 371.987C372.5 371.987 372.537 372.004 372.578 372.011C372.647 371.673 372.932 371.413 373.291 371.413C373.343 371.413 373.389 371.432 373.438 371.442C373.485 371.078 373.784 370.792 374.161 370.792C374.161 370.382 374.494 370.05 374.904 370.05C375.314 370.05 375.646 370.382 375.646 370.792C375.646 371.202 375.314 371.534 374.904 371.534C374.904 371.944 374.571 372.277 374.161 372.277C374.109 372.277 374.064 372.257 374.015 372.247C373.967 372.612 373.668 372.898 373.291 372.898C373.248 372.898 373.211 372.88 373.171 372.873C373.102 373.212 372.816 373.472 372.457 373.472C372.341 373.472 372.234 373.439 372.136 373.391C372.001 373.574 371.794 373.7 371.55 373.7C371.351 373.7 371.173 373.619 371.04 373.493C370.907 373.619 370.729 373.7 370.531 373.7C370.249 373.7 370.013 373.537 369.887 373.306C369.761 373.404 369.61 373.472 369.438 373.472C369.114 373.472 368.846 373.261 368.744 372.97C368.668 372.997 368.588 373.019 368.503 373.019C368.132 373.019 367.838 372.742 367.782 372.387C367.747 372.392 367.715 372.408 367.678 372.408C367.289 372.408 366.98 372.106 366.948 371.726C366.922 371.728 366.899 371.741 366.872 371.741C366.463 371.741 366.13 371.408 366.13 370.998C366.13 370.589 366.463 370.256 366.872 370.256C367.261 370.256 367.57 370.558 367.602 370.938Z" fill="#391422"/>
</g>
<rect x="127.201" y="388.633" width="402.986" height="8.56115" fill="#F7B98A"/>
<path d="M86.8417 264.434C86.8417 263.919 87.2334 263.488 87.7464 263.439L143.228 258.127C143.816 258.07 144.324 258.532 144.324 259.122V455.763C144.324 456.315 143.876 456.763 143.324 456.763H87.8417C87.2895 456.763 86.8417 456.315 86.8417 455.763V264.434Z" fill="url(#paint3_linear_49_1315)"/>
<line x1="144.324" y1="295.601" x2="87.4532" y2="295.601" stroke="#5F4F53" stroke-opacity="0.66" stroke-width="3"/>
<line x1="101.241" y1="456.763" x2="101.241" y2="262.302" stroke="#5F4F53" stroke-opacity="0.66" stroke-width="3"/>
<line x1="118.975" y1="456.763" x2="118.975" y2="260.468" stroke="#5F4F53" stroke-opacity="0.66" stroke-width="3"/>
<line x1="144.324" y1="342.687" x2="87.4532" y2="342.687" stroke="#5F4F53" stroke-opacity="0.66" stroke-width="3"/>
<line x1="144.324" y1="386.104" x2="87.4532" y2="386.104" stroke="#5F4F53" stroke-opacity="0.66" stroke-width="3"/>
<line x1="144.324" y1="435.637" x2="87.4532" y2="435.637" stroke="#5F4F53" stroke-opacity="0.66" stroke-width="3"/>
<path d="M86.8417 509.964H138.82C138.629 513.395 138.174 515.14 136.68 517.914H86.8417V509.964Z" fill="#FEFAC1"/>
<path d="M86.8417 520.971H130.259C130.259 522.5 120.475 528.004 114.36 533.201H86.8417V520.971Z" fill="#FEFAC1"/>
<path d="M86.8417 537.482H108.245C106.104 539.317 102.435 541.151 97.5432 545.432H86.8417V537.482Z" fill="#FEFAC1"/>
<line x1="146.77" y1="461.263" x2="86.8417" y2="461.263" stroke="#D0AA78" stroke-width="9"/>
<path d="M569.935 264.434C569.935 263.919 569.544 263.488 569.031 263.439L513.549 258.127C512.961 258.07 512.453 258.532 512.453 259.122V455.763C512.453 456.315 512.901 456.763 513.453 456.763H568.935C569.488 456.763 569.935 456.315 569.935 455.763V264.434Z" fill="url(#paint4_linear_49_1315)"/>
<line y1="-1.5" x2="56.8705" y2="-1.5" transform="matrix(1 -3.93576e-07 -1.94187e-08 -1 512.453 294.101)" stroke="#5F4F53" stroke-opacity="0.66" stroke-width="3"/>
<line y1="-1.5" x2="194.46" y2="-1.5" transform="matrix(7.1481e-08 -1 -1 -2.673e-08 554.036 456.763)" stroke="#5F4F53" stroke-opacity="0.66" stroke-width="3"/>
<line y1="-1.5" x2="196.295" y2="-1.5" transform="matrix(7.1481e-08 -1 -1 -2.673e-08 536.302 456.763)" stroke="#5F4F53" stroke-opacity="0.66" stroke-width="3"/>
<line y1="-1.5" x2="56.8705" y2="-1.5" transform="matrix(1 -3.93576e-07 -1.94187e-08 -1 512.453 341.187)" stroke="#5F4F53" stroke-opacity="0.66" stroke-width="3"/>
<line y1="-1.5" x2="56.8705" y2="-1.5" transform="matrix(1 -3.93576e-07 -1.94187e-08 -1 512.453 384.604)" stroke="#5F4F53" stroke-opacity="0.66" stroke-width="3"/>
<line y1="-1.5" x2="56.8705" y2="-1.5" transform="matrix(1 -3.93576e-07 -1.94187e-08 -1 512.453 434.137)" stroke="#5F4F53" stroke-opacity="0.66" stroke-width="3"/>
<path d="M569.935 509.964H517.957C518.148 513.395 518.603 515.14 520.097 517.914H569.935V509.964Z" fill="#FEFAC1"/>
<path d="M569.935 520.971H526.518C526.518 522.5 536.302 528.004 542.417 533.201H569.935V520.971Z" fill="#FEFAC1"/>
<path d="M569.935 537.482H548.532C550.673 539.317 554.342 541.151 559.234 545.432H569.935V537.482Z" fill="#FEFAC1"/>
<line y1="-4.5" x2="59.9281" y2="-4.5" transform="matrix(1 1.42962e-07 5.346e-08 -1 510.007 456.763)" stroke="#D0AA78" stroke-width="9"/>
<path d="M332 663L214.221 512.25L449.779 512.25L332 663Z" fill="black" fill-opacity="0.1"/>
<defs>
<filter id="filter0_d_49_1315" x="259.038" y="158.55" width="137.503" height="27.9983" filterUnits="userSpaceOnUse" color-interpolation-filters="sRGB">
<feFlood flood-opacity="0" result="BackgroundImageFix"/>
<feColorMatrix in="SourceAlpha" type="matrix" values="0 0 0 0 0 0 0 0 0 0 0 0 0 0 0 0 0 0 127 0" result="hardAlpha"/>
<feOffset dy="4"/>
<feGaussianBlur stdDeviation="2"/>
<feComposite in2="hardAlpha" operator="out"/>
<feColorMatrix type="matrix" values="0 0 0 0 1 0 0 0 0 1 0 0 0 0 1 0 0 0 0.25 0"/>
<feBlend mode="normal" in2="BackgroundImageFix" result="effect1_dropShadow_49_1315"/>
<feBlend mode="normal" in="SourceGraphic" in2="effect1_dropShadow_49_1315" result="shape"/>
</filter>
<linearGradient id="paint0_linear_49_1315" x1="327.471" y1="41.9065" x2="327.471" y2="388.633" gradientUnits="userSpaceOnUse">
<stop stop-color="#35131D"/>
<stop offset="0.509531" stop-color="#35151D"/>
<stop offset="1" stop-color="#57797C"/>
</linearGradient>
<linearGradient id="paint1_linear_49_1315" x1="186.824" y1="24.2039" x2="186.824" y2="388.633" gradientUnits="userSpaceOnUse">
<stop stop-color="#F5BD8B"/>
<stop offset="1" stop-color="#F7B98A"/>
</linearGradient>
<linearGradient id="paint2_linear_49_1315" x1="328.686" y1="218.022" x2="328.686" y2="388.633" gradientUnits="userSpaceOnUse">
<stop stop-color="#FFFFEA"/>
<stop offset="1" stop-color="#F9F8DB"/>
</linearGradient>
<linearGradient id="paint3_linear_49_1315" x1="115.583" y1="258.022" x2="115.583" y2="456.763" gradientUnits="userSpaceOnUse">
<stop stop-color="#FFFFEA"/>
<stop offset="1" stop-color="#F9F8DB"/>
</linearGradient>
<linearGradient id="paint4_linear_49_1315" x1="541.194" y1="258.022" x2="541.194" y2="456.763" gradientUnits="userSpaceOnUse">
<stop stop-color="#FFFFEA"/>
<stop offset="1" stop-color="#F9F8DB"/>
</linearGradient>
<clipPath id="clip0_49_1315">
<rect width="62.9856" height="62.9856" fill="white" transform="matrix(-1 0 0 1 402.381 339.101)"/>
</clipPath>
</defs>
</svg>
