<svg width="834" height="806" viewBox="0 0 834 806" fill="none" xmlns="http://www.w3.org/2000/svg">
<rect y="29" width="834" height="759" rx="110" fill="#361520"/>
<rect x="228" y="30" width="373" height="567" fill="url(#paint0_linear_44_238)"/>
<rect x="236" y="196" width="357" height="97" fill="#37141D"/>
<g filter="url(#filter0_d_44_238)">
<path d="M287.006 218.801H290.681C294.235 227.631 296.115 232.307 296.32 232.832C296.787 234.108 297.095 234.973 297.243 235.429C297.243 235.429 297.386 235.834 297.67 236.643H297.824C297.972 236.107 298.132 235.56 298.303 235.002C298.303 235.002 298.496 234.398 298.884 233.19C299.1 232.53 299.34 231.84 299.602 231.123L304.028 218.801H305.002L309.565 230.866L311.53 236.643H311.684L312.897 232.746C313.114 232.062 313.336 231.419 313.564 230.815L317.922 218.801H321.596L312.06 243.342H311.086L305.891 229.636C305.743 229.271 305.594 228.855 305.446 228.388L304.523 225.568H304.421L303.977 227.055C303.851 227.477 303.715 227.915 303.566 228.371L298.2 243.342H297.226L287.006 218.801ZM336.044 218.801H354.108V221.672H339.206V228.2H352.484V231.071H339.206V240.129H354.45V243H336.044V218.801ZM369.957 218.801H373.119V240.129H386.312V243H369.957V218.801ZM420.669 223.825C418.778 222.139 416.346 221.296 413.372 221.296C410.672 221.296 408.382 222.185 406.502 223.962C404.599 225.751 403.648 227.978 403.648 230.644C403.648 233.401 404.628 235.737 406.587 237.651C408.536 239.554 410.9 240.505 413.68 240.505C415.696 240.505 417.707 239.992 419.712 238.967C420.305 238.671 420.818 238.346 421.25 237.993L422.481 240.351C420.806 241.787 418.647 242.715 416.004 243.137C415.149 243.273 414.272 243.342 413.372 243.342C411.583 243.342 409.897 243.046 408.313 242.453C406.73 241.849 405.34 241.012 404.144 239.941C402.959 238.859 402.019 237.571 401.324 236.079C400.64 234.586 400.298 233.082 400.298 231.567C400.298 230.052 400.452 228.741 400.76 227.636C401.079 226.52 401.529 225.494 402.11 224.56C402.691 223.614 403.386 222.766 404.195 222.014C405.004 221.262 405.904 220.624 406.895 220.1C408.969 219.006 411.23 218.459 413.68 218.459C416.995 218.459 419.855 219.405 422.259 221.296L420.669 223.825ZM440.142 239.941C438.957 238.859 438.017 237.571 437.322 236.079C436.638 234.586 436.296 233.082 436.296 231.567C436.296 230.052 436.45 228.741 436.758 227.636C437.077 226.52 437.527 225.494 438.108 224.56C438.689 223.614 439.384 222.766 440.193 222.014C441.002 221.262 441.902 220.624 442.893 220.1C444.967 219.006 447.228 218.459 449.678 218.459C452.025 218.459 454.212 218.983 456.24 220.031C458.211 221.057 459.784 222.481 460.957 224.304C462.153 226.206 462.751 228.32 462.751 230.644C462.751 234.324 461.453 237.372 458.855 239.787C457.226 241.302 455.26 242.345 452.959 242.915C451.808 243.199 450.475 243.342 448.96 243.342C447.445 243.342 445.895 243.046 444.312 242.453C442.728 241.849 441.338 241.012 440.142 239.941ZM442.483 223.962C441.606 224.794 440.911 225.779 440.398 226.918C439.897 228.058 439.646 229.311 439.646 230.678C439.646 232.045 439.908 233.327 440.432 234.523C440.956 235.72 441.674 236.762 442.585 237.651C444.534 239.554 446.898 240.505 449.678 240.505C452.378 240.505 454.668 239.616 456.548 237.839C458.451 236.039 459.402 233.811 459.402 231.157C459.402 229.357 458.946 227.688 458.035 226.149C457.18 224.691 455.978 223.518 454.429 222.629C452.902 221.74 451.341 221.296 449.746 221.296C448.151 221.296 446.761 221.535 445.576 222.014C444.403 222.481 443.372 223.13 442.483 223.962ZM480.498 218.818H481.438L492.119 230.524L502.783 218.818H503.791L505.842 243H502.749L501.193 224.799L492.153 234.814H491.811L483.044 224.953L481.677 243H478.618L480.498 218.818ZM522.528 218.801H540.592V221.672H525.69V228.2H538.969V231.071H525.69V240.129H540.934V243H522.528V218.801Z" fill="white" fill-opacity="0.88" shape-rendering="crispEdges"/>
</g>
<path d="M215 611H618V796C618 801.523 613.523 806 608 806H225C219.477 806 215 801.523 215 796V611Z" fill="url(#paint1_linear_44_238)"/>
<rect x="294.5" y="654.206" width="244" height="107.587" rx="1.5" stroke="#D0AA78"/>
<rect x="310.109" y="669.816" width="212.781" height="76.3684" rx="1.5" stroke="#D0AA78"/>
<rect x="325.719" y="685.425" width="180.884" height="45.1496" rx="1.5" stroke="#D0AA78"/>
<path d="M118.5 608.5H163.5V785.187L118.5 754.988V608.5Z" fill="#45222A" stroke="#D0AA78" stroke-width="3"/>
<path d="M714.5 608.5H669.5V785.187L714.5 754.988V608.5Z" fill="#45222A" stroke="#D0AA78" stroke-width="3"/>
<mask id="path-11-inside-1_44_238" fill="white">
<path d="M164 611H215V788H164V611Z"/>
</mask>
<path d="M164 611H215V788H164V611Z" fill="#45222A"/>
<path d="M208 611V788H222V611H208ZM171 788V611H157V788H171Z" fill="#D0AA78" mask="url(#path-11-inside-1_44_238)"/>
<mask id="path-13-inside-2_44_238" fill="white">
<path d="M618 611H669V788H618V611Z"/>
</mask>
<path d="M618 611H669V788H618V611Z" fill="#45222A"/>
<path d="M662 611V788H676V611H662ZM625 788V611H611V788H625Z" fill="#D0AA78" mask="url(#path-13-inside-2_44_238)"/>
<rect x="141" y="1.05103" width="87" height="595.949" fill="url(#paint2_linear_44_238)"/>
<rect x="155" y="256.458" width="59" height="340.542" fill="#FDFCBF"/>
<rect x="155" width="6" height="256.458" fill="#F8F9BD"/>
<rect x="208" width="6" height="256.458" fill="#F8F9BD"/>
<rect x="173" width="6" height="256.458" fill="#F8F9BD"/>
<rect x="191" width="6" height="256.458" fill="#F8F9BD"/>
<rect x="169" y="342.644" width="31" height="190.241" fill="#36151F"/>
<path d="M185 287.99L196.258 342.382H173.742L185 287.99Z" fill="#F4BD8F"/>
<rect x="174" y="532.885" width="21" height="43.0933" rx="3" fill="#F6BA8D"/>
<line x1="165" y1="533.988" x2="205" y2="533.988" stroke="#381622" stroke-width="2"/>
<line x1="165" y1="538.192" x2="205" y2="538.192" stroke="#381622" stroke-width="2"/>
<line x1="165" y1="542.396" x2="205" y2="542.396" stroke="#381622" stroke-width="2"/>
<line x1="165" y1="546.6" x2="205" y2="546.6" stroke="#381622" stroke-width="2"/>
<line x1="165" y1="329.032" x2="205" y2="329.032" stroke="#381622" stroke-width="2"/>
<line x1="165" y1="333.236" x2="205" y2="333.236" stroke="#381622" stroke-width="2"/>
<line x1="165" y1="337.44" x2="205" y2="337.44" stroke="#381622" stroke-width="2"/>
<line x1="165" y1="341.644" x2="205" y2="341.644" stroke="#381622" stroke-width="2"/>
<rect x="601" y="1.05103" width="87" height="595.949" fill="url(#paint3_linear_44_238)"/>
<rect x="615" y="256.458" width="59" height="340.542" fill="#FDFCBF"/>
<rect x="615" width="6" height="256.458" fill="#F8F9BD"/>
<rect x="668" width="6" height="256.458" fill="#F8F9BD"/>
<rect x="633" width="6" height="256.458" fill="#F8F9BD"/>
<rect x="651" width="6" height="256.458" fill="#F8F9BD"/>
<rect x="629" y="342.644" width="31" height="190.241" fill="#36151F"/>
<path d="M645 287.99L656.258 342.382H633.742L645 287.99Z" fill="#F4BD8F"/>
<rect x="634" y="532.885" width="21" height="43.0933" rx="3" fill="#F6BA8D"/>
<line x1="625" y1="533.988" x2="665" y2="533.988" stroke="#381622" stroke-width="2"/>
<line x1="625" y1="538.192" x2="665" y2="538.192" stroke="#381622" stroke-width="2"/>
<line x1="625" y1="542.396" x2="665" y2="542.396" stroke="#381622" stroke-width="2"/>
<line x1="625" y1="546.6" x2="665" y2="546.6" stroke="#381622" stroke-width="2"/>
<line x1="625" y1="329.032" x2="665" y2="329.032" stroke="#381622" stroke-width="2"/>
<line x1="625" y1="333.236" x2="665" y2="333.236" stroke="#381622" stroke-width="2"/>
<line x1="625" y1="337.44" x2="665" y2="337.44" stroke="#381622" stroke-width="2"/>
<line x1="625" y1="341.644" x2="665" y2="341.644" stroke="#381622" stroke-width="2"/>
<circle cx="415" cy="58" r="51" fill="#F6B789"/>
<circle cx="415" cy="58" r="36" fill="#FAF5BC"/>
<circle cx="63" cy="139" r="36" fill="#F6B789"/>
<circle cx="63" cy="139" r="25.4118" fill="#FAF5BC"/>
<circle cx="759" cy="139" r="36" fill="#F6B789"/>
<circle cx="759" cy="139" r="25.4118" fill="#FAF5BC"/>
<rect x="305" y="318" width="222.972" height="279" rx="3" fill="url(#paint4_linear_44_238)"/>
<line x1="527.972" y1="370.5" x2="305" y2="370.5" stroke="#5F4F53" stroke-opacity="0.66" stroke-width="3"/>
<line y1="-1.5" x2="278.995" y2="-1.5" transform="matrix(-0.00372284 -0.999993 0.999994 -0.00352608 391.037 597)" stroke="#5F4F53" stroke-opacity="0.66" stroke-width="3"/>
<line x1="443.518" y1="597" x2="443.518" y2="318" stroke="#5F4F53" stroke-opacity="0.66" stroke-width="3"/>
<line x1="527.972" y1="436.5" x2="305" y2="436.5" stroke="#5F4F53" stroke-opacity="0.66" stroke-width="3"/>
<line x1="527.972" y1="497.5" x2="305" y2="497.5" stroke="#5F4F53" stroke-opacity="0.66" stroke-width="3"/>
<path d="M366 384H466V391C466 395.418 462.418 399 458 399H374C369.582 399 366 395.418 366 391V384Z" fill="#371521"/>
<path d="M391 400H442C442 404.418 438.418 408 434 408H399C394.582 408 391 404.418 391 400Z" fill="#371521"/>
<line x1="404.5" y1="384" x2="404.5" y2="318" stroke="#351520" stroke-width="3"/>
<line x1="428.5" y1="384" x2="428.5" y2="318" stroke="#351520" stroke-width="3"/>
<line x1="423.5" y1="384" x2="423.5" y2="318" stroke="#351520" stroke-width="3"/>
<line x1="409.5" y1="384" x2="409.5" y2="318" stroke="#351520" stroke-width="3"/>
<path d="M360.354 554.228C360.159 554.237 359.954 554.304 359.742 554.446L349.135 561.547L363.758 568.637C364.915 569.198 366.352 567.994 366.083 567.234L362.067 555.85C361.849 555.232 361.199 554.19 360.354 554.228ZM349.135 561.547L338.557 554.446C337.491 553.731 336.5 555.09 336.23 555.849L332.184 567.213C331.913 567.973 333.308 569.196 334.509 568.615L349.135 561.547ZM366.32 563.906L367.34 566.801C367.565 567.437 367.404 568.042 367.168 568.475C366.932 568.908 366.606 569.238 366.22 569.506C365.472 570.024 364.358 570.328 363.279 569.859L349.134 596.36L335.035 569.82C333.937 570.32 332.78 570.023 332.019 569.486C331.632 569.213 331.309 568.875 331.08 568.439C330.851 568.002 330.703 567.404 330.926 566.776L331.925 563.971L321.451 567.281C318.952 568.07 316.56 569.264 317.069 571.607L324.692 606.627C325.203 608.97 326.648 610.953 329.075 610.953L368.987 610.955C371.415 610.955 372.865 608.974 373.37 606.629L380.936 571.546C381.442 569.202 378.861 567.968 376.554 567.22L366.32 563.906ZM349.146 568.666C347.784 568.666 346.662 569.774 346.662 571.118C346.662 572.463 347.784 573.57 349.146 573.57C350.508 573.57 351.63 572.462 351.63 571.118C351.63 569.773 350.508 568.666 349.146 568.666ZM349.146 570.309C349.609 570.309 349.966 570.662 349.966 571.118C349.966 571.575 349.609 571.927 349.146 571.927C348.684 571.927 348.327 571.575 348.327 571.118C348.327 570.662 348.684 570.309 349.146 570.309ZM349.146 578.205C347.784 578.205 346.662 579.313 346.662 580.657C346.662 582.002 347.784 583.109 349.146 583.109C350.508 583.109 351.63 582.001 351.63 580.657C351.63 579.312 350.508 578.205 349.146 578.205ZM349.146 579.848C349.609 579.848 349.966 580.201 349.966 580.657C349.966 581.113 349.609 581.466 349.146 581.466C348.684 581.466 348.327 581.113 348.327 580.657C348.327 580.201 348.684 579.848 349.146 579.848ZM363.828 581.531H373.366V583.82H363.828V581.531Z" fill="#381323"/>
<ellipse cx="349.727" cy="559.318" rx="5.09091" ry="2.18182" fill="#322323"/>
<path fill-rule="evenodd" clip-rule="evenodd" d="M362.084 537.328C363.921 534.961 365 532.072 365 528.955C365 520.921 357.837 514.409 349 514.409C340.163 514.409 333 520.921 333 528.955C333 532.072 334.079 534.961 335.916 537.328C335.911 537.144 335.909 536.959 335.909 536.773C335.909 527.133 341.77 519.318 349 519.318C356.23 519.318 362.091 527.133 362.091 536.773C362.091 536.959 362.089 537.144 362.084 537.328Z" fill="#381323"/>
<ellipse cx="349" cy="522.955" rx="20.3636" ry="12.3636" fill="#381323"/>
<ellipse cx="349.727" cy="516.682" rx="13.8182" ry="10.9091" fill="#381323"/>
<path d="M495.016 562.578C495.016 562.578 492.784 562.453 491.125 562.255C490.577 562.19 490.418 561.483 490.878 561.176C494.377 558.839 496.712 554.819 497.638 550.604C497.922 549.308 498.149 547.944 498.314 546.552C498.335 546.371 498.23 546.197 498.063 546.126C490.29 542.8 486.069 536.131 484.813 533.864C484.649 533.569 484.355 533.403 484.045 533.382C481.81 536.594 478.589 539.002 474.972 540.191C473.254 542.535 472.237 545.297 472.524 548.432C472.994 553.591 476.052 558.25 480.146 561.318C480.577 561.641 480.38 562.324 479.843 562.376C478.417 562.515 476.541 562.578 475.987 562.578C467.994 562.578 458.451 554.79 460.899 547.181L464.351 532.449C466.988 524.255 473.959 517.998 482.49 516.845C493.252 515.39 503.247 521.874 506.484 531.931L510.101 547.183C512.548 554.792 503.01 562.58 495.016 562.58L495.016 562.578Z" fill="#391422"/>
<path d="M449.295 590.781C450.931 583.494 452.72 577.765 454.574 575.215C454.574 575.215 459.617 567.777 470.026 566.287C471.178 566.122 472.336 566.593 473.035 567.524L482.233 579.773C483.867 581.95 487.133 581.95 488.767 579.773L497.966 567.524C498.664 566.593 499.823 566.122 500.975 566.287C511.384 567.777 516.426 575.215 516.426 575.215C518.28 577.764 520.07 583.493 521.705 590.781C522.516 594.36 519.787 597.759 516.117 597.759H454.884C451.215 597.759 448.485 594.36 449.296 590.781H449.295Z" fill="#391422"/>
<path d="M480.126 568.064C480.169 568.059 480.206 568.039 480.25 568.039C480.856 568.039 481.337 568.492 481.428 569.073C481.486 569.064 481.537 569.038 481.598 569.038C482.129 569.038 482.567 569.384 482.733 569.859C482.858 569.815 482.988 569.779 483.128 569.779C483.589 569.779 483.976 570.045 484.181 570.423C484.387 570.263 484.634 570.151 484.915 570.151C485.24 570.151 485.531 570.282 485.748 570.49C485.966 570.283 486.257 570.151 486.581 570.151C486.772 570.151 486.946 570.204 487.107 570.283C487.328 569.984 487.666 569.779 488.066 569.779C488.135 569.779 488.196 569.807 488.262 569.818C488.375 569.265 488.842 568.839 489.429 568.839C489.514 568.839 489.588 568.871 489.669 568.888C489.746 568.292 490.235 567.824 490.852 567.824C490.852 567.154 491.396 566.61 492.066 566.61C492.736 566.61 493.28 567.154 493.28 567.824C493.28 568.495 492.736 569.038 492.066 569.038C492.066 569.709 491.522 570.252 490.852 570.252C490.767 570.252 490.693 570.221 490.612 570.204C490.535 570.8 490.046 571.267 489.429 571.267C489.359 571.267 489.298 571.239 489.232 571.228C489.119 571.781 488.653 572.207 488.066 572.207C487.875 572.207 487.701 572.154 487.54 572.075C487.319 572.373 486.981 572.579 486.581 572.579C486.257 572.579 485.966 572.448 485.748 572.24C485.53 572.447 485.24 572.579 484.915 572.579C484.454 572.579 484.068 572.313 483.862 571.935C483.657 572.095 483.41 572.207 483.128 572.207C482.598 572.207 482.159 571.861 481.994 571.386C481.869 571.43 481.739 571.466 481.598 571.466C480.992 571.466 480.511 571.013 480.421 570.432C480.363 570.441 480.311 570.467 480.25 570.467C479.614 570.467 479.108 569.973 479.056 569.351C479.014 569.356 478.976 569.376 478.933 569.376C478.262 569.376 477.719 568.832 477.719 568.162C477.719 567.492 478.262 566.948 478.933 566.948C479.568 566.948 480.074 567.442 480.126 568.064Z" fill="#391422"/>
<rect x="87" y="597" width="659" height="14" fill="#F7B98A"/>
<path d="M21 327.909C21 327.393 21.3917 326.962 21.9047 326.913L113.905 318.105C114.492 318.049 115 318.51 115 319.1V642C115 642.552 114.552 643 114 643H22C21.4477 643 21 642.552 21 642V327.909Z" fill="url(#paint5_linear_44_238)"/>
<line x1="115" y1="378.5" x2="22" y2="378.5" stroke="#5F4F53" stroke-opacity="0.66" stroke-width="3"/>
<line x1="45.5" y1="643" x2="45.5" y2="325" stroke="#5F4F53" stroke-opacity="0.66" stroke-width="3"/>
<line x1="74.5" y1="643" x2="74.5" y2="322" stroke="#5F4F53" stroke-opacity="0.66" stroke-width="3"/>
<line x1="115" y1="455.5" x2="22" y2="455.5" stroke="#5F4F53" stroke-opacity="0.66" stroke-width="3"/>
<line x1="115" y1="526.5" x2="22" y2="526.5" stroke="#5F4F53" stroke-opacity="0.66" stroke-width="3"/>
<line x1="115" y1="607.5" x2="22" y2="607.5" stroke="#5F4F53" stroke-opacity="0.66" stroke-width="3"/>
<path d="M21 730H106C105.687 735.61 104.944 738.464 102.5 743H21V730Z" fill="#FEFAC1"/>
<path d="M21 748H92C92 750.5 76 759.5 66 768H21V748Z" fill="#FEFAC1"/>
<path d="M21 775H56C52.5 778 46.5 781 38.5 788H21V775Z" fill="#FEFAC1"/>
<line x1="119" y1="647.5" x2="21" y2="647.5" stroke="#D0AA78" stroke-width="9"/>
<path d="M811 327.909C811 327.393 810.608 326.962 810.095 326.913L718.095 318.105C717.508 318.049 717 318.51 717 319.1V642C717 642.552 717.448 643 718 643H810C810.552 643 811 642.552 811 642V327.909Z" fill="url(#paint6_linear_44_238)"/>
<line y1="-1.5" x2="93" y2="-1.5" transform="matrix(1 -2.40676e-07 -3.17553e-08 -1 717 377)" stroke="#5F4F53" stroke-opacity="0.66" stroke-width="3"/>
<line y1="-1.5" x2="318" y2="-1.5" transform="matrix(4.37114e-08 -1 -1 -4.37114e-08 785 643)" stroke="#5F4F53" stroke-opacity="0.66" stroke-width="3"/>
<line y1="-1.5" x2="321" y2="-1.5" transform="matrix(4.37114e-08 -1 -1 -4.37114e-08 756 643)" stroke="#5F4F53" stroke-opacity="0.66" stroke-width="3"/>
<line y1="-1.5" x2="93" y2="-1.5" transform="matrix(1 -2.40676e-07 -3.17553e-08 -1 717 454)" stroke="#5F4F53" stroke-opacity="0.66" stroke-width="3"/>
<line y1="-1.5" x2="93" y2="-1.5" transform="matrix(1 -2.40676e-07 -3.17553e-08 -1 717 525)" stroke="#5F4F53" stroke-opacity="0.66" stroke-width="3"/>
<line y1="-1.5" x2="93" y2="-1.5" transform="matrix(1 -2.40676e-07 -3.17553e-08 -1 717 606)" stroke="#5F4F53" stroke-opacity="0.66" stroke-width="3"/>
<path d="M811 730H726C726.313 735.61 727.056 738.464 729.5 743H811V730Z" fill="#FEFAC1"/>
<path d="M811 748H740C740 750.5 756 759.5 766 768H811V748Z" fill="#FEFAC1"/>
<path d="M811 775H776C779.5 778 785.5 781 793.5 788H811V775Z" fill="#FEFAC1"/>
<line y1="-4.5" x2="98" y2="-4.5" transform="matrix(1 8.74228e-08 8.74228e-08 -1 713 643)" stroke="#D0AA78" stroke-width="9"/>
<defs>
<filter id="filter0_d_44_238" x="283.006" y="218.459" width="261.928" height="32.8828" filterUnits="userSpaceOnUse" color-interpolation-filters="sRGB">
<feFlood flood-opacity="0" result="BackgroundImageFix"/>
<feColorMatrix in="SourceAlpha" type="matrix" values="0 0 0 0 0 0 0 0 0 0 0 0 0 0 0 0 0 0 127 0" result="hardAlpha"/>
<feOffset dy="4"/>
<feGaussianBlur stdDeviation="2"/>
<feComposite in2="hardAlpha" operator="out"/>
<feColorMatrix type="matrix" values="0 0 0 0 1 0 0 0 0 1 0 0 0 0 1 0 0 0 0.25 0"/>
<feBlend mode="normal" in2="BackgroundImageFix" result="effect1_dropShadow_44_238"/>
<feBlend mode="normal" in="SourceGraphic" in2="effect1_dropShadow_44_238" result="shape"/>
</filter>
<linearGradient id="paint0_linear_44_238" x1="414.5" y1="30" x2="414.5" y2="597" gradientUnits="userSpaceOnUse">
<stop stop-color="#35131D"/>
<stop offset="0.509531" stop-color="#35151D"/>
<stop offset="1" stop-color="#57797C"/>
</linearGradient>
<linearGradient id="paint1_linear_44_238" x1="416.5" y1="611" x2="416.5" y2="806" gradientUnits="userSpaceOnUse">
<stop stop-color="#45222A"/>
<stop offset="1" stop-color="#401922"/>
</linearGradient>
<linearGradient id="paint2_linear_44_238" x1="184.5" y1="1.05103" x2="184.5" y2="597" gradientUnits="userSpaceOnUse">
<stop stop-color="#F5BD8B"/>
<stop offset="1" stop-color="#F7B98A"/>
</linearGradient>
<linearGradient id="paint3_linear_44_238" x1="644.5" y1="1.05103" x2="644.5" y2="597" gradientUnits="userSpaceOnUse">
<stop stop-color="#F5BD8B"/>
<stop offset="1" stop-color="#F7B98A"/>
</linearGradient>
<linearGradient id="paint4_linear_44_238" x1="416.486" y1="318" x2="416.486" y2="597" gradientUnits="userSpaceOnUse">
<stop stop-color="#FFFFEA"/>
<stop offset="1" stop-color="#F9F8DB"/>
</linearGradient>
<linearGradient id="paint5_linear_44_238" x1="68" y1="318" x2="68" y2="643" gradientUnits="userSpaceOnUse">
<stop stop-color="#FFFFEA"/>
<stop offset="1" stop-color="#F9F8DB"/>
</linearGradient>
<linearGradient id="paint6_linear_44_238" x1="764" y1="318" x2="764" y2="643" gradientUnits="userSpaceOnUse">
<stop stop-color="#FFFFEA"/>
<stop offset="1" stop-color="#F9F8DB"/>
</linearGradient>
</defs>
</svg>
