<?xml version="1.0" standalone="no"?>
<!DOCTYPE svg PUBLIC "-//W3C//DTD SVG 20010904//EN"
 "http://www.w3.org/TR/2001/REC-SVG-20010904/DTD/svg10.dtd">
<svg version="1.0" xmlns="http://www.w3.org/2000/svg"
 width="490.000000pt" height="490.000000pt" viewBox="0 0 490.000000 490.000000"
 preserveAspectRatio="xMidYMid meet">
<metadata>
Created by potrace 1.14, written by Peter Selinger 2001-2017
</metadata>
<g transform="translate(0.000000,490.000000) scale(0.100000,-0.100000)"
fill="#000000" stroke="none">
<path d="M343 4684 c-48 -20 -101 -79 -113 -123 -7 -27 -9 -691 -8 -2124 l3
-2085 31 -44 c18 -23 47 -52 65 -63 34 -20 54 -20 2129 -22 l2095 -3 45 23
c26 14 58 42 75 66 l30 43 0 2107 0 2108 -29 41 c-15 23 -45 52 -65 64 l-36
23 -2095 2 c-1777 1 -2100 -1 -2127 -13z"/>
</g>
</svg>
