<svg width="39" height="41" viewBox="0 0 39 41" fill="none" xmlns="http://www.w3.org/2000/svg">
<path d="M16.0414 3.73205C17.8978 2.66025 20.185 2.66025 22.0414 3.73205L32.5317 9.78864C34.3881 10.8604 35.5317 12.8412 35.5317 14.9848V27.098C35.5317 29.2416 34.3881 31.2223 32.5317 32.2941L22.0414 38.3507C20.185 39.4225 17.8978 39.4225 16.0414 38.3507L5.55106 32.2941C3.69466 31.2223 2.55106 29.2416 2.55106 27.098V14.9848C2.55106 12.8412 3.69466 10.8604 5.55106 9.78864L16.0414 3.73205Z" fill="#202020"/>
<path d="M12.1359 26.84L17.5959 21.38L12.1659 15.98L13.6059 14.54L19.0359 19.94L24.4359 14.54L25.8759 15.98L20.4759 21.38L25.9059 26.84L24.4659 28.28L19.0359 22.82L13.5759 28.28L12.1359 26.84Z" fill="white"/>
</svg>
