<svg width="38" height="44" viewBox="0 0 38 44" fill="none" xmlns="http://www.w3.org/2000/svg">
<path d="M16.0384 2.54567C17.8752 1.50316 20.1248 1.50316 21.9616 2.54567L34.9616 9.92405C36.8396 10.9899 38 12.9828 38 15.1422V29.7225C38 31.8819 36.8396 33.8747 34.9616 34.9406L21.9616 42.319C20.1248 43.3615 17.8752 43.3615 16.0384 42.319L3.03836 34.9406C1.16037 33.8747 0 31.8819 0 29.7225V15.1422C0 12.9828 1.16037 10.9899 3.03837 9.92405L16.0384 2.54567Z" fill="#202020"/>
<path d="M12.3791 28.7047L17.8391 23.2447L12.4091 17.8447L13.8491 16.4047L19.2791 21.8047L24.6791 16.4047L26.1191 17.8447L20.7191 23.2447L26.1491 28.7047L24.7091 30.1447L19.2791 24.6847L13.8191 30.1447L12.3791 28.7047Z" fill="white"/>
</svg>
